<svg xmlns="http://www.w3.org/2000/svg" viewBox="0 0 216 215.99777"><defs><style>.cls-1{fill:#4f5866;}</style></defs><g id="Layer_2" data-name="Layer 2"><g id="Layer_1-2" data-name="Layer 1"><path class="cls-1" d="M163.68437,0H180.559V16.87479c3.32048,0,6.33662-.00882,9.3527.00149,15.08309.05158,26.07076,11.00875,26.07674,26.1q.02919,73.49471-.01952,146.9894a28.04464,28.04464,0,0,1-.64341,6.26491c-2.78127,12.00118-12.80965,19.75693-25.48534,19.75982q-81.82482.01869-163.64963.00443c-.56228,0-1.12545.00363-1.6867-.02449A25.19861,25.19861,0,0,1,5.14506,205.93512C2.29018,202.30807.95154,198.05563,0,193.63692V39.23362a4.68586,4.68586,0,0,0,.31346-.771C3.318,24.51038,12.73839,16.878,26.96963,16.87477c2.77968-.00062,5.55937-.00009,8.46719-.00009V0H52.3115V16.74186H163.68437Zm35.43682,79.46308H16.87468v2.45113q0,53.5704.00066,107.1408c.00027,6.86989,3.1856,10.06529,10.03554,10.06546q81.09376.00192,162.18754,0c6.84325-.00017,10.02185-3.19773,10.02213-10.07886q.002-53.5704.00064-107.1408Zm-35.386-45.56314H52.26412v16.595H35.35787V33.75088c-3.3895,0-6.5479-.03976-9.70495.009-5.2147.08048-8.70851,3.56211-8.76481,8.783-.05534,5.13148-.013,10.264-.01341,15.3961-.00013,1.45224,0,2.90449,0,4.34837H199.09144c0-6.95995.10219-13.77348-.03894-20.582a7.89678,7.89678,0,0,0-7.02964-7.76419c-3.73788-.34238-7.53174-.07362-11.53056-.07362v16.655H163.7352Z"/><path class="cls-1" d="M48.84716,97.183v16.60471h-16.613V97.183Z"/><path class="cls-1" d="M65.94439,97.06939H82.5156v16.683H65.94439Z"/><path class="cls-1" d="M99.6006,113.77091V97.19972h16.683v16.57119Z"/><path class="cls-1" d="M133.40769,113.75882V97.13741h16.61307v16.62141Z"/><path class="cls-1" d="M167.16057,97.112h16.63489v16.67217H167.16057Z"/><path class="cls-1" d="M32.15018,147.54649V130.92295H48.811v16.62354Z"/><path class="cls-1" d="M82.59272,130.92855v16.61231H65.97965V130.92855Z"/><path class="cls-1" d="M99.65387,147.50369V130.89123h16.61306v16.61246Z"/><path class="cls-1" d="M133.44732,130.88441h16.63719v16.613H133.44732Z"/><path class="cls-1" d="M183.83516,130.89652v16.60223h-16.6398V130.89652Z"/><path class="cls-1" d="M48.84256,164.67711V181.291H32.2295v-16.6139Z"/><path class="cls-1" d="M65.9603,164.622H82.57409V181.2351H65.9603Z"/><path class="cls-1" d="M99.65387,181.25305V164.64058h16.61306v16.61247Z"/><path class="cls-1" d="M133.40383,181.25365V164.64h16.61306v16.61367Z"/></g></g></svg>
