<svg xmlns="http://www.w3.org/2000/svg" viewBox="0 0 352 351.98"><defs><style>.cls-1{fill:#707d99;}</style></defs><g id="Layer_2" data-name="Layer 2"><g id="Layer_1-2" data-name="Layer 1"><path class="cls-1" d="M0,175.85C-.25,79.43,79,0,175.56,0A176.19,176.19,0,0,1,352,176.09c.16,96.45-78.69,175.43-175.6,175.89S.25,273.45,0,175.85ZM176.05,320c80.09-.52,144.33-64.85,144-144.17C319.67,96,254.86,31.65,175.22,32S31.43,97.52,32,177.73C32.57,256,97.85,320.5,176.05,320Z"/><path class="cls-1" d="M256.91,111.64a23.28,23.28,0,0,1-6.76,13Q220.4,154.23,190.75,184q-33.27,33.25-66.55,66.52c-6.69,6.66-15.66,7.34-22.31,1.88a15.94,15.94,0,0,1-2.54-22.18,24.29,24.29,0,0,1,2.26-2.5q63.08-63.1,126.19-126.17c7.42-7.41,17.9-7.55,24.07,0C254.19,104.37,255.27,108.24,256.91,111.64Z"/></g></g></svg>
