<svg xmlns="http://www.w3.org/2000/svg" viewBox="0 0 216 235.4696"><defs><style>.cls-1{fill:#4f5866;}</style></defs><g id="Layer_2" data-name="Layer 2"><g id="Layer_1-2" data-name="Layer 1"><path class="cls-1" d="M172.8436,235.4696H43.13982a1.8879,1.8879,0,0,0-.58177-.32946c-12.22585-1.71119-23.07947-12.8003-22.96677-28.38291.27874-38.53924.09147-77.08183.09147-115.62309V88.55252a3.94548,3.94548,0,0,0-.71267-.2077c-3.52486-.01548-7.04978-.0188-10.57465-.03242-5.41878-.02095-8.352-2.94088-8.36884-8.40024C.003,72.25-.02056,64.58735.03,56.9254c.10332-15.6619,11.929-27.43483,27.5663-27.47032,9.57945-.02174,19.159-.00411,28.73849-.00416l2.56177,0c0-4.23159-.07443-8.13632.01469-12.03731.221-9.67437,7.3714-17.28706,16.663-17.33939,21.61054-.12172,43.22234-.07,64.83342-.01238a16.05985,16.05985,0,0,1,11.20019,4.62983,17.38413,17.38413,0,0,1,5.47884,13.17915c.0156,3.8003.00308,7.60072.00308,11.58011,1.12669,0,1.95662-.0003,2.78655,0,9.96265.004,19.92677-.09852,29.88758.03859,13.17589.18137,24.81965,10.6425,25.82259,23.77825.66323,8.68676.31706,17.45266.36654,26.18344.03464,6.11194-2.74152,8.85613-8.824,8.86157-3.56927.0032-7.13853.00058-10.8284.00058l0,3.0497q-.00021,58.38655-.00871,116.77311a26.93842,26.93842,0,0,1-19.07305,26.1157C175.77137,234.69352,174.30255,235.06539,172.8436,235.4696Zm8.73891-146.99446H34.40091V91.1393q0,57.92916.00084,115.85835c.00044,8.85834,4.917,13.75516,13.81,13.75556q59.66355.00263,119.32712.00043c9.20479-.00018,14.0429-4.81825,14.04314-13.98671q.00158-57.81423.00045-115.62848ZM201.245,73.49622c0-5.31223.00509-10.36036-.00111-15.40847-.01109-9.02551-4.90552-13.92061-13.91743-13.92076q-79.32673-.00131-158.65346.00034c-.76636,0-1.53425-.01761-2.29884.02234-5.31982.278-10.62851,4.15106-11.098,9.32206-.59721,6.57732-.1446,13.24993-.1446,19.98449ZM142.37229,29.34711c0-3.721.00753-7.162-.00214-10.603-.0095-3.37928-.64042-4.00719-4.0236-4.00759q-30.35529-.00364-60.71058-.00094c-.45992,0-.92017-.00674-1.37968.00792a2.37019,2.37019,0,0,0-2.57765,2.3905c-.09986,4.03607-.03434,8.07623-.03434,12.21308Z"/><path class="cls-1" d="M100.63429,157.07855c.00162-10.64639-.03156-21.293.019-31.9391a7.33147,7.33147,0,0,1,14.46091-1.77635,9.37677,9.37677,0,0,1,.2267,2.273q.01734,31.36476.00109,62.72949c-.00375,4.34059-2.75208,7.456-6.79487,7.84838a7.43419,7.43419,0,0,1-7.74082-5.83353,13.45276,13.45276,0,0,1-.16695-2.74147Q100.62347,172.35878,100.63429,157.07855Z"/><path class="cls-1" d="M73.60663,157.14657c0,10.49216.0468,20.98462-.01984,31.47636-.03309,5.211-4.47577,8.63123-9.27228,7.30994a7.49288,7.49288,0,0,1-5.40328-7.41186c-.06882-3.90464-.01824-7.81141-.01832-11.71724q-.0005-24.9285.00438-49.857a18.92932,18.92932,0,0,1,.1154-2.74887,7.30716,7.30716,0,0,1,7.66139-6.439,7.22158,7.22158,0,0,1,6.897,7.22224c.07383,10.72135.02526,21.44357.02526,32.16543Z"/><path class="cls-1" d="M142.37637,156.95578q.004-15.85277.00481-31.70554a7.06606,7.06606,0,0,1,4.65041-6.98229,7.16862,7.16862,0,0,1,8.00126,1.811c1.68364,1.80184,2.07294,3.99715,2.06984,6.37224q-.03386,25.96176-.01209,51.92363c0,3.2931.03968,6.58681-.0112,9.87912-.0717,4.63949-3.23462,8.01642-7.41,7.99595-4.21541-.02067-7.275-3.3499-7.28725-8.048C142.355,177.78655,142.37368,167.37114,142.37637,156.95578Z"/></g></g></svg>
