<svg xmlns="http://www.w3.org/2000/svg" viewBox="0 0 216 216.00332"><defs><style>.cls-1{fill:#4f5866;}</style></defs><g id="Layer_2" data-name="Layer 2"><g id="Layer_1-2" data-name="Layer 1"><path class="cls-1" d="M128.24357,0c.56642.25439,1.13154.51169,1.69944.76269a9.04409,9.04409,0,0,1,5.39227,9.17163,8.9258,8.9258,0,0,1-7.39015,7.86586,19.83384,19.83384,0,0,1-3.35549.225q-39.54752.018-79.095.021c-13.017.01879-23.56593,8.09087-26.62934,20.37507a27.93631,27.93631,0,0,0-.79423,6.66714q-.06876,62.8541-.01275,125.70828c.02284,15.40088,11.70593,27.08771,27.13121,27.13208,29.31765.08434,58.63571.02575,87.95359.02153.5464-.00008,1.09278-.06181,1.85012-.10751l0-2.36027q.00006-16.45176.00336-32.90354c.024-15.79874,11.79752-27.55674,27.61987-27.58231q16.34627-.02641,32.69261-.00342h2.64575c0-.91179,0-1.71606,0-2.52035.00037-13.991-.02252-27.98212.01211-41.97306.01465-5.91545,4.09173-9.94715,9.59294-9.62729a8.8812,8.8812,0,0,1,8.41508,9.08885c.0465,8.71778.014,17.436.01419,26.154q.0003,15.18624-.00018,30.37249a44.55659,44.55659,0,0,1-13.412,32.6146q-11.75241,11.812-23.55664,23.57241a44.18762,44.18762,0,0,1-32.22965,13.3047q-50.62077.04125-101.2416.00057c-23.34917-.024-41.93978-16.3351-45.18968-39.53669A4.56057,4.56057,0,0,0,0,175.49121V40.498a7.51642,7.51642,0,0,0,.38073-1.1615C3.28991,21.08194,13.41753,8.72228,30.76886,2.40319A89.89369,89.89369,0,0,1,40.498,0Zm24.916,196.93761a2.41384,2.41384,0,0,0,.66585.079,13.70181,13.70181,0,0,0,1.423-.36049,26.40117,26.40117,0,0,0,11.0512-6.69792q11.78664-11.75769,23.55474-23.534a27.026,27.026,0,0,0,6.89982-11.41249c.17375-.5738.24878-1.17751.376-1.79883a4.45622,4.45622,0,0,0-.77267-.16963c-11.59046-.00226-23.18154-.06516-34.7711.039a8.54028,8.54028,0,0,0-8.51642,8.67846c-.0879,11.37916-.03566,22.75939-.03311,34.1392A8.71644,8.71644,0,0,0,153.15955,196.93761Z"/><path class="cls-1" d="M62.52515,170.90485c-3.60914,0-6.497.11783-9.37135-.02837-4.03176-.20508-7.8203-3.48059-7.94471-7.4266-.2475-7.85-.86262-15.75688.893-23.52924a45.9942,45.9942,0,0,1,12.95092-22.74486Q95.57514,80.77528,131.99172,44.269q17.67144-17.6715,35.35214-35.33367a28.649,28.649,0,0,1,36.69581-3.46988c13.045,8.98945,15.70567,27.71177,5.68921,40.2206a46.10277,46.10277,0,0,1-3.42177,3.72276c-35.08684,35.10194-70.30986,70.06914-105.20243,105.36308C90.1085,165.89449,77.55317,171.99877,62.52515,170.90485Zm.50655-18.00838c.62316.06093.96595.117,1.30983.12479a28.35549,28.35549,0,0,0,21.61075-8.68468q53.98827-54.087,108.05691-108.09376a20.23214,20.23214,0,0,0,1.71152-1.85874,9.94557,9.94557,0,0,0-5.78836-15.88561c-4.12043-.88165-7.36027.63024-10.23921,3.51206q-54.16045,54.215-108.35995,108.39093c-.64537.64548-1.28379,1.30305-1.87085,2.00092C64.513,138.286,62.59349,145.11432,63.0317,152.89647Z"/></g></g></svg>
