<svg xmlns="http://www.w3.org/2000/svg" viewBox="0 0 216 216.08518"><defs><style>.cls-1{fill:#4f5866;}</style></defs><g id="Layer_2" data-name="Layer 2"><g id="Layer_1-2" data-name="Layer 1"><path class="cls-1" d="M46.0326,216.08518c-2.66728-.542-5.36418-.96861-7.99719-1.64429A50.39159,50.39159,0,0,1,.10094,166.02548Q-.08,108.03779.10963,50.04925C.22253,22.72176,22.67832.39074,50.00742.136,62.445.02,74.89112-.12636,87.3216.19554c14.13065.36592,26.13511,5.91644,35.87072,16.21732a8.18369,8.18369,0,0,1,1.76705,9.52059A8.40094,8.40094,0,0,1,111.08574,28.15c-7.35718-7.87008-16.47951-11.31994-27.16946-11.19817-10.8913.12406-21.78515.01128-32.67784.031-19.464.03532-34.29074,14.85118-34.301,34.32052q-.02986,56.82852.00092,113.65705c.01168,19.33921,14.85193,34.18742,34.16979,34.24756,7.51941.0234,15.03965-.05738,22.55823.02637a8.38579,8.38579,0,0,1,7.8489,11.939c-1.15613,2.70592-3.43563,3.92846-5.95983,4.91178Z"/><path class="cls-1" d="M216,128.76542c-1.04772,2.86274-2.56469,5.28222-5.69621,6.26847-5.81846,1.83249-11.12859-2.08917-11.15915-8.37234-.05094-10.47494.02-20.95047-.0307-31.42541-.02244-4.63236.2081-9.322-.41569-13.88454a24.89842,24.89842,0,0,0-24.53674-21.31937q-48.81621-.097-97.63271.0005A25.20662,25.20662,0,0,0,51.531,85.27685q-.07432,41.65453-.02237,83.30931a15.97531,15.97531,0,0,1-.1767,3.14723,8.41678,8.41678,0,0,1-16.67514-1.876q-.0405-24.78183-.01154-49.56377-.00024-17.18913.00332-34.37828c.03361-21.22583,14.31677-38.382,35.20007-42.17712a43.89429,43.89429,0,0,1,7.76153-.58057q47.65656-.05667,95.31324-.02132c22.23075.009,39.49484,14.97556,42.72642,36.99168A5.074,5.074,0,0,0,216,81.0981Z"/><path class="cls-1" d="M146.83213,216.08518c-4.181-.82912-8.42332-1.42908-12.53184-2.529-14.08806-3.77157-26.7797-10.54348-38.35688-19.22856-11.9737-8.98255-12.07239-28.11083-.20722-37.30419A110.4948,110.4948,0,0,1,129.749,138.8703c19.13407-6.13741,37.63574-4.017,55.37244,4.81205a214.41537,214.41537,0,0,1,21.12683,12.59512c5.38086,3.50214,8.20648,8.90328,9.32927,15.19283.09588.53727.27953,1.05888.42242,1.58775v5.062c-.143.52784-.32746,1.04833-.42245,1.58467-1.04319,5.89066-3.605,11.02449-8.45875,14.56433-11.68277,8.52021-24.23889,15.4348-38.28927,19.24706-4.16532,1.1302-8.47517,1.72755-12.71879,2.56905Zm4.61219-16.86563c3.74619-.5101,7.542-.787,11.22953-1.5727,12.5453-2.67294,23.36245-9.03392,33.64593-16.37,4.01877-2.86693,3.7215-8.81449-.40368-11.70756a120.53707,120.53707,0,0,0-22.16-12.47888c-11.49654-4.87106-23.20615-6.78969-35.5128-3.16422-11.18707,3.29566-21.2118,8.81217-30.76856,15.318-4.92613,3.3535-4.94064,9.35435.04927,12.70453,3.78571,2.54169,7.6225,5.03014,11.58472,7.28144C129.11683,194.91677,139.66652,198.921,151.44432,199.21955Z"/><path class="cls-1" d="M162.42662,175.62845a10.53544,10.53544,0,0,1-21.06742.23311,10.535,10.535,0,1,1,21.06742-.23311Z"/></g></g></svg>
