<svg xmlns="http://www.w3.org/2000/svg" viewBox="0 0 216 216"><defs><style>.cls-1{fill:#17ffc2;}.cls-2{fill:#0d2742;}</style></defs><g id="Layer_2" data-name="Layer 2"><g id="Layer_1-2" data-name="Layer 1"><g id="Layer_2-2" data-name="Layer 2"><g id="Layer_1-2-2" data-name="Layer 1-2"><path class="cls-1" d="M38.79,0H177.21A38.94,38.94,0,0,1,216,38.79V177.21A38.94,38.94,0,0,1,177.21,216H38.79A38.94,38.94,0,0,1,0,177.21V38.79A38.63,38.63,0,0,1,38.79,0Z"/><path class="cls-2" d="M108.24,22.51A86.27,86.27,0,0,1,194,97.22a85.36,85.36,0,0,1-59.39,92.44,87.2,87.2,0,0,1-109.68-56c0-.48,0-.48-.47-1-12.94-46,12.93-92.92,58-106.33,2.87-1,6.22-1.44,9.58-2.39C97.22,23.47,102.49,23,108.24,22.51Zm-7.66,121.65a163.52,163.52,0,0,0,50.28-5.27,58.08,58.08,0,0,0,22.51-11c6.23-5.75,6.71-13.41,0-18.68a74.55,74.55,0,0,0-14.84-8.62,119,119,0,0,0-38.8-7.67,160.32,160.32,0,0,0-56.51,5.75A49.7,49.7,0,0,0,42.63,109.2c-6.71,5.74-6.71,12.93,0,18.68a44.1,44.1,0,0,0,12.93,7.66A121.23,121.23,0,0,0,100.58,144.16Z"/><path class="cls-2" d="M73.28,107.76A10.54,10.54,0,1,1,62.74,118.3h0A10.63,10.63,0,0,1,73.28,107.76Z"/><path class="cls-2" d="M142.24,107.76a10.3,10.3,0,1,1-10.05,10.54C132.19,112.55,136.5,107.76,142.24,107.76Z"/></g></g></g></g></svg>